<?xml version="1.0" standalone="no"?>
<!DOCTYPE svg PUBLIC "-//W3C//DTD SVG 20010904//EN"
 "http://www.w3.org/TR/2001/REC-SVG-20010904/DTD/svg10.dtd">
<svg version="1.0" xmlns="http://www.w3.org/2000/svg"
 width="260.000000pt" height="260.000000pt" viewBox="0 0 260.000000 260.000000"
 preserveAspectRatio="xMidYMid meet">
<metadata>
Created by potrace 1.11, written by Peter Selinger 2001-2013
</metadata>
<g transform="translate(0.000000,260.000000) scale(0.100000,-0.100000)"
fill="#000000" stroke="none">
<path d="M745 2204 c-106 -17 -189 -58 -235 -117 -31 -39 -70 -129 -81 -189
-6 -29 -13 -119 -16 -199 -8 -229 27 -394 95 -451 28 -23 114 -49 242 -73 51
-10 122 -34 147 -51 38 -24 56 -109 51 -238 -3 -61 -11 -129 -19 -150 -31 -85
-108 -106 -327 -87 -83 7 -154 11 -159 8 -4 -3 -7 -59 -5 -126 3 -102 6 -121
20 -125 54 -16 242 -36 345 -36 276 0 380 77 428 316 25 126 27 391 3 497 -38
169 -91 213 -314 258 -85 17 -148 40 -169 63 -42 44 -44 310 -3 366 37 51 77
61 239 60 81 -1 162 -3 178 -3 l30 -2 3 116 c2 85 -1 119 -10 126 -25 20 -124
34 -268 38 -80 2 -158 1 -175 -1z"/>
<path d="M1488 1290 l-3 -900 155 2 155 3 2 358 c1 197 5 362 9 368 4 6 62 9
157 8 l152 -2 3 137 3 136 -160 0 c-96 0 -161 4 -163 10 -1 5 -1 121 2 257 l5
248 178 0 177 0 0 138 0 137 -335 0 -335 0 -2 -900z"/>
</g>
</svg>
